# Blender v2.92.0 OBJ File: 'greenBricks.blend'
# www.blender.org
mtllib greenBricks.mtl
o Cube_Cube.001
v -3.464303 -1.587383 3.464303
v -3.464303 1.587383 3.464303
v -3.464303 -1.587383 -3.464303
v -3.464303 1.587383 -3.464303
v 3.464303 -1.587383 3.464303
v 3.464303 1.587383 3.464303
v 3.464303 -1.587383 -3.464303
v 3.464303 1.587383 -3.464303
vt 0.344930 0.366540
vt 0.638948 0.366540
vt 0.638948 0.660558
vt 0.344930 0.660558
vt 0.340815 0.350085
vt 0.643063 0.350085
vt 0.643063 0.652334
vt 0.340815 0.652334
vt 0.641264 0.644602
vt 0.346335 0.644602
vt 0.346335 0.349672
vt 0.641264 0.349672
vt 0.365171 0.384280
vt 0.632348 0.384280
vt 0.632348 0.651457
vt 0.365171 0.651457
vt 0.345886 0.361687
vt 0.638282 0.361687
vt 0.638282 0.654083
vt 0.345886 0.654083
vt 0.349138 0.351381
vt 0.650572 0.351381
vt 0.650572 0.652815
vt 0.349138 0.652815
vn -1.0000 0.0000 0.0000
vn 0.0000 0.0000 -1.0000
vn 1.0000 0.0000 0.0000
vn 0.0000 0.0000 1.0000
vn 0.0000 -1.0000 0.0000
vn 0.0000 1.0000 0.0000
usemtl Material.001
s off
f 1/1/1 2/2/1 4/3/1 3/4/1
f 3/5/2 4/6/2 8/7/2 7/8/2
f 7/9/3 8/10/3 6/11/3 5/12/3
f 5/13/4 6/14/4 2/15/4 1/16/4
f 3/17/5 7/18/5 5/19/5 1/20/5
f 8/21/6 4/22/6 2/23/6 6/24/6
