# Blender v2.92.0 OBJ File: 'greenBrickCorner.blend'
# www.blender.org
mtllib greenBrickCorner.mtl
o Cylinder
v 0.000001 -0.591504 4.028890
v 0.000001 0.591504 4.028890
v -1.541788 -0.591504 3.722209
v -1.541788 0.591504 3.722209
v -2.848855 -0.591504 2.848856
v -2.848855 0.591504 2.848856
v -3.722208 -0.591504 1.541790
v -3.722208 0.591504 1.541790
v -4.028890 -0.591504 -0.000000
v -4.028890 0.591504 -0.000000
v 0.487279 -0.591504 1.579005
v 0.487279 0.591504 1.579005
v -0.585909 -0.591504 1.414498
v -0.585909 0.591504 1.414498
v -1.082623 -0.591504 1.082625
v -1.082623 0.591504 1.082625
v -1.414497 -0.591504 0.585910
v -1.414497 0.591504 0.585910
v -1.579005 -0.591504 -0.487278
v -1.579005 0.591504 -0.487278
vt 0.335022 0.352330
vt 0.666072 0.352330
vt 0.666072 0.400172
vt 0.335022 0.400172
vt 0.666072 0.471772
vt 0.335022 0.471772
vt 0.666072 0.556231
vt 0.335022 0.556231
vt 0.666072 0.640689
vt 0.335022 0.640689
vt 0.384592 0.545965
vt 0.384592 0.479579
vt 0.621829 0.479579
vt 0.621829 0.545965
vt 0.384592 0.449204
vt 0.621829 0.449204
vt 0.384592 0.642727
vt 0.384592 0.612352
vt 0.621829 0.612352
vt 0.621829 0.642727
vt 0.384592 0.545965
vt 0.621829 0.545965
vt 0.554753 0.547371
vt 0.412920 0.548064
vt 0.412515 0.400809
vt 0.554349 0.400116
vt 0.343562 0.475242
vt 0.431173 0.427216
vt 0.439993 0.549506
vt 0.380247 0.584748
vt 0.560696 0.427281
vt 0.656162 0.457381
vt 0.632013 0.577338
vt 0.566607 0.554263
vt 0.520950 0.409220
vt 0.474109 0.542666
vt 0.466682 0.428362
vt 0.530880 0.554673
vt 0.599224 0.423992
vt 0.503854 0.548280
vt 0.388433 0.460460
vt 0.501145 0.566872
vt 0.654080 0.469284
vt 0.539502 0.581693
vt 0.337860 0.518688
vt 0.468767 0.608781
vt 0.343764 0.462097
vt 0.643227 0.462097
vt 0.643227 0.584000
vt 0.343764 0.584000
vn -0.1951 0.0000 0.9808
vn -0.5556 0.0000 0.8315
vn -0.8315 0.0000 0.5556
vn -0.9808 0.0000 0.1951
vn 0.1515 0.0000 -0.9885
vn 0.5555 0.0000 -0.8315
vn 0.8315 0.0000 -0.5555
vn 0.9885 0.0000 -0.1515
vn 0.9808 0.0000 0.1951
vn 0.0000 -1.0000 0.0000
vn 0.0000 1.0000 0.0000
vn -0.1951 0.0000 -0.9808
usemtl Material
s off
f 1/1/1 2/2/1 4/3/1 3/4/1
f 3/4/2 4/3/2 6/5/2 5/6/2
f 5/6/3 6/5/3 8/7/3 7/8/3
f 7/8/4 8/7/4 10/9/4 9/10/4
f 11/11/5 13/12/5 14/13/5 12/14/5
f 13/12/6 15/15/6 16/16/6 14/13/6
f 15/17/7 17/18/7 18/19/7 16/20/7
f 17/18/8 19/21/8 20/22/8 18/19/8
f 2/23/9 1/24/9 11/25/9 12/26/9
f 1/27/10 3/28/10 13/29/10 11/30/10
f 4/31/11 2/32/11 12/33/11 14/34/11
f 3/28/10 5/35/10 15/36/10 13/29/10
f 6/37/11 4/31/11 14/34/11 16/38/11
f 5/35/10 7/39/10 17/40/10 15/36/10
f 8/41/11 6/37/11 16/38/11 18/42/11
f 7/39/10 9/43/10 19/44/10 17/40/10
f 10/45/11 8/41/11 18/42/11 20/46/11
f 9/47/12 10/48/12 20/49/12 19/50/12
