# Blender v2.92.0 OBJ File: 'mushroom.blend'
# www.blender.org
mtllib mushroom.mtl
o Icosphere
v 0.000000 0.067946 0.000000
v 0.723607 0.107924 0.525725
v -0.276388 0.107924 0.850649
v -0.894426 0.107925 0.000000
v -0.276388 0.107924 -0.850649
v 0.723607 0.107924 -0.525725
v 0.276388 0.258435 0.850649
v -0.723607 0.258435 0.525725
v -0.723607 0.258435 -0.525725
v 0.276388 0.258435 -0.850649
v 0.894426 0.258434 0.000000
v 0.000000 0.381171 0.000000
v -0.162456 0.018348 0.499995
v 0.425323 0.018348 0.309011
v 0.262869 0.090491 0.809012
v 0.850648 0.090491 0.000000
v 0.425323 0.018348 -0.309011
v -0.525730 0.018349 0.000000
v -0.688189 0.090491 0.499997
v -0.162456 0.018348 -0.499995
v -0.688189 0.090491 -0.499997
v 0.262869 0.090491 -0.809012
v 0.951058 0.000000 0.309013
v 0.951058 0.000000 -0.309013
v 0.000000 0.000000 1.000000
v 0.587786 0.000000 0.809017
v -0.951058 0.000000 0.309013
v -0.587786 0.000000 0.809017
v -0.587786 0.000000 -0.809017
v -0.951058 0.000000 -0.309013
v 0.587786 0.000000 -0.809017
v 0.000000 0.000000 -1.000000
v 0.688189 0.275869 0.499997
v -0.262869 0.275869 0.809012
v -0.850648 0.275868 0.000000
v -0.262869 0.275869 -0.809012
v 0.688189 0.275869 -0.499997
v 0.162456 0.348011 0.499995
v 0.525730 0.348011 0.000000
v -0.425323 0.348011 0.309011
v -0.425323 0.348011 -0.309011
v 0.162456 0.348011 -0.499995
vt 0.819001 0.543185
vt 0.761113 0.631503
vt 0.761112 0.454869
vt 0.875000 0.538498
vt 0.822643 0.552348
vt 0.851341 0.400284
vt 0.822643 0.400284
vt 0.503941 0.890659
vt 0.512359 0.758699
vt 0.557433 0.790176
vt 0.557433 0.964752
vt 0.434202 0.693655
vt 0.445034 0.550756
vt 0.492341 0.605338
vt 0.618115 0.871294
vt 0.557433 0.761923
vt 0.618115 0.758699
vt 0.844671 0.000000
vt 0.834497 0.139786
vt 0.784843 0.048096
vt 0.761112 0.481248
vt 0.750129 0.631504
vt 0.700008 0.543185
vt 0.283699 0.570636
vt 0.277441 0.725519
vt 0.225761 0.647330
vt 0.492341 0.781975
vt 0.844671 0.294166
vt 0.786893 0.382097
vt 0.784843 0.221003
vt 0.761112 0.781759
vt 0.704486 0.862722
vt 0.700008 0.719823
vt 0.704487 0.400284
vt 0.242513 0.487236
vt 0.590718 0.758699
vt 0.520279 0.758699
vt 0.571878 0.649123
vt 0.700008 0.529447
vt 0.652455 0.654758
vt 0.636116 0.514373
vt 0.266940 0.242784
vt 0.280194 0.100531
vt 0.317950 0.245524
vt 0.550585 0.294149
vt 0.543076 0.400284
vt 0.503941 0.250646
vt 0.552391 0.000000
vt 0.541360 0.139580
vt 0.505002 0.077751
vt 0.503941 0.618314
vt 0.526194 0.464521
vt 0.562922 0.519861
vt 0.607882 0.400284
vt 0.317950 0.388489
vt 0.275339 0.386201
vt 0.688459 0.405918
vt 0.351678 0.231220
vt 0.362662 0.381475
vt 0.317950 0.319537
vt 0.691009 0.048251
vt 0.689949 0.221148
vt 0.691009 0.382272
vt 0.125000 0.466486
vt 0.125000 0.323519
vt 0.128001 0.146963
vt 0.132855 0.004259
vt 0.275199 0.000000
vt 0.419616 0.623200
vt 0.317950 0.717490
vt 0.322117 0.562385
vt 0.434202 0.795841
vt 0.346933 0.856099
vt 0.499463 0.142902
vt 0.362661 0.080963
vt 0.499463 0.319539
vt 0.238014 0.820543
vt 0.304546 0.865324
vt 0.434202 0.462438
vt 0.503941 0.000000
vt 0.494769 0.924876
vt 0.445034 0.836556
vt 0.503941 0.462438
vt 0.494769 0.462438
vt 0.304546 0.466486
vt 0.822643 0.804081
vt 0.871475 0.682973
vt 0.871475 0.835946
vt 0.225761 0.466487
vt 0.187733 0.609387
vt 0.151287 0.466486
vt 0.125000 0.609387
vt 0.151287 0.752289
vt 0.225761 0.752288
vt 0.189697 0.852506
vt 0.784843 0.100231
vt 0.714163 0.115871
vt 0.738403 0.000000
vt 0.756986 0.255356
vt 0.691009 0.263916
vt 0.852052 0.960600
vt 0.797559 0.774404
vt 0.822643 0.686085
vt 0.714162 0.398344
vt 0.784843 0.382702
vt 0.875000 0.682973
vn -0.0358 -0.9933 -0.1102
vn 0.2279 -0.9698 0.0872
vn 0.0937 -0.9933 -0.0681
vn 0.0937 -0.9933 0.0681
vn -0.0358 -0.9933 0.1102
vn -0.4966 -0.8631 -0.0914
vn -0.0666 -0.8631 -0.5006
vn 0.4555 -0.8631 -0.2180
vn 0.3481 -0.8631 0.3658
vn -0.2404 -0.8631 0.4441
vn -0.7164 -0.4646 -0.5205
vn 0.2736 -0.4647 -0.8422
vn 0.8855 -0.4646 0.0000
vn 0.2736 -0.4647 0.8422
vn -0.7164 -0.4646 0.5205
vn 0.1331 0.9698 0.2045
vn -0.1534 0.9698 0.1898
vn -0.2279 0.9698 -0.0872
vn 0.0125 0.9698 -0.2437
vn 0.2356 0.9698 -0.0634
vn 0.0629 0.9970 -0.0457
vn 0.1353 0.9859 -0.0983
vn 0.1331 0.9698 -0.2045
vn -0.0240 0.9970 -0.0739
vn -0.0517 0.9859 -0.1590
vn -0.1534 0.9698 -0.1898
vn -0.0777 0.9970 0.0000
vn -0.1672 0.9859 0.0000
vn -0.2279 0.9698 0.0872
vn -0.0240 0.9970 0.0739
vn -0.0517 0.9859 0.1590
vn 0.0125 0.9698 0.2437
vn 0.0629 0.9970 0.0457
vn 0.1353 0.9859 0.0983
vn 0.2356 0.9698 0.0634
vn 0.7860 0.5375 -0.3055
vn 0.7602 0.3420 -0.5523
vn 0.5334 0.5375 -0.6531
vn -0.0476 0.5375 -0.8419
vn -0.2904 0.3420 -0.8937
vn -0.4563 0.5375 -0.7091
vn -0.8154 0.5375 -0.2149
vn -0.9397 0.3420 0.0000
vn -0.8154 0.5375 0.2149
vn -0.4563 0.5375 0.7091
vn -0.2904 0.3420 0.8937
vn -0.0476 0.5375 0.8419
vn 0.5334 0.5375 0.6531
vn 0.7602 0.3420 0.5523
vn 0.7860 0.5375 0.3055
vn 0.3019 0.2141 -0.9290
vn -0.2069 -0.7428 0.6367
vn -0.0666 -0.8631 0.5006
vn -0.7903 0.2141 -0.5742
vn 0.5416 -0.7428 0.3935
vn 0.4555 -0.8631 0.2180
vn -0.7903 0.2141 0.5742
vn 0.5416 -0.7428 -0.3935
vn 0.3481 -0.8631 -0.3658
vn 0.3019 0.2141 0.9290
vn -0.2069 -0.7428 -0.6367
vn -0.2404 -0.8631 -0.4441
vn 0.9768 0.2141 0.0000
vn -0.6695 -0.7428 0.0000
vn -0.4966 -0.8631 0.0914
vn 0.1534 -0.9698 -0.1898
vn 0.0517 -0.9859 -0.1590
vn -0.0125 -0.9698 -0.2437
vn -0.1331 -0.9698 -0.2045
vn -0.1353 -0.9859 -0.0983
vn -0.2356 -0.9698 -0.0634
vn -0.2356 -0.9698 0.0634
vn -0.1353 -0.9859 0.0983
vn -0.1331 -0.9698 0.2045
vn 0.2279 -0.9698 -0.0872
vn 0.1672 -0.9859 0.0000
vn -0.1158 -0.9933 0.0000
vn -0.0125 -0.9698 0.2437
vn 0.0517 -0.9859 0.1590
vn 0.1534 -0.9698 0.1898
usemtl MushroomTop
s off
f 1/1/1 14/2/1 13/3/1
f 2/4/2 14/5/2 16/6/2
f 1/1/3 13/3/3 18/7/3
f 1/8/4 18/9/4 20/10/4
f 1/8/5 20/10/5 17/11/5
f 2/12/6 16/13/6 23/14/6
f 3/15/7 15/16/7 25/17/7
f 4/18/8 19/19/8 27/20/8
f 5/21/9 21/22/9 29/23/9
f 6/24/10 22/25/10 31/26/10
f 2/12/11 23/14/11 26/27/11
f 3/28/12 25/29/12 28/30/12
f 4/31/13 27/32/13 30/33/13
f 5/21/14 29/23/14 32/34/14
f 6/24/15 31/26/15 24/35/15
f 7/36/16 33/37/16 38/38/16
f 8/39/17 34/40/17 40/41/17
f 9/42/18 35/43/18 41/44/18
f 10/45/19 36/46/19 42/47/19
f 11/48/20 37/49/20 39/50/20
f 39/51/21 42/52/21 12/53/21
f 39/50/22 37/49/22 42/47/22
f 37/49/23 10/45/23 42/47/23
f 42/52/24 41/54/24 12/53/24
f 42/55/25 36/56/25 41/44/25
f 36/56/26 9/42/26 41/44/26
f 41/54/27 40/41/27 12/53/27
f 41/54/28 35/57/28 40/41/28
f 35/57/29 8/39/29 40/41/29
f 40/41/30 38/38/30 12/53/30
f 40/41/31 34/40/31 38/38/31
f 34/40/32 7/36/32 38/38/32
f 38/38/33 39/51/33 12/53/33
f 38/38/34 33/37/34 39/51/34
f 33/58/35 11/59/35 39/60/35
f 24/61/36 37/49/36 11/48/36
f 24/61/37 31/62/37 37/49/37
f 31/62/38 10/45/38 37/49/38
f 32/63/39 36/46/39 10/45/39
f 32/64/40 29/65/40 36/56/40
f 29/65/41 9/42/41 36/56/41
f 30/66/42 35/43/42 9/42/42
f 30/66/43 27/67/43 35/43/43
f 27/67/44 8/68/44 35/43/44
f 28/69/45 34/70/45 8/71/45
f 28/69/46 25/72/46 34/70/46
f 25/72/47 7/73/47 34/70/47
f 26/74/48 33/58/48 7/75/48
f 26/74/49 23/76/49 33/58/49
f 23/76/50 11/59/50 33/58/50
f 31/62/51 32/63/51 10/45/51
f 31/26/52 22/25/52 32/77/52
f 22/25/53 5/78/53 32/77/53
f 29/65/54 30/66/54 9/42/54
f 29/23/55 21/22/55 30/33/55
f 21/22/56 4/31/56 30/33/56
f 27/79/57 28/69/57 8/71/57
f 27/20/58 19/19/58 28/30/58
f 19/19/59 3/28/59 28/30/59
f 25/80/60 26/74/60 7/75/60
f 25/81/61 15/82/61 26/27/61
f 15/82/62 2/12/62 26/27/62
f 23/76/63 24/83/63 11/59/63
f 23/14/64 16/13/64 24/84/64
f 16/85/65 6/24/65 24/35/65
f 17/86/66 22/87/66 6/88/66
f 17/89/67 20/90/67 22/91/67
f 20/90/68 5/92/68 22/91/68
f 20/90/69 21/93/69 5/92/69
f 20/90/70 18/94/70 21/93/70
f 18/94/71 4/95/71 21/93/71
f 18/96/72 19/97/72 4/98/72
f 18/96/73 13/99/73 19/97/73
f 13/99/74 3/100/74 19/97/74
f 16/101/75 17/86/75 6/88/75
f 16/102/76 14/2/76 17/103/76
f 14/2/77 1/1/77 17/103/77
f 13/99/78 15/104/78 3/100/78
f 13/99/79 14/105/79 15/104/79
f 14/5/80 2/4/80 15/106/80
o Cylinder
v 0.000000 -0.613151 -0.262903
v 0.000000 0.110014 -0.262903
v 0.100609 -0.613151 -0.242891
v 0.100609 0.110014 -0.242891
v 0.185901 -0.613151 -0.185901
v 0.185901 0.110014 -0.185901
v 0.242891 -0.613151 -0.100609
v 0.242891 0.110014 -0.100609
v 0.262903 -0.613151 0.000000
v 0.262903 0.110014 0.000000
v 0.242891 -0.613151 0.100609
v 0.242891 0.110014 0.100609
v 0.185901 -0.613151 0.185901
v 0.185901 0.110014 0.185901
v 0.100609 -0.613151 0.242891
v 0.100609 0.110014 0.242891
v 0.000000 -0.613151 0.262903
v 0.000000 0.110014 0.262903
v -0.100609 -0.613151 0.242891
v -0.100609 0.110014 0.242891
v -0.185901 -0.613151 0.185901
v -0.185901 0.110014 0.185901
v -0.242891 -0.613151 0.100609
v -0.242891 0.110014 0.100609
v -0.262903 -0.613151 -0.000000
v -0.262903 0.110014 -0.000000
v -0.242891 -0.613151 -0.100609
v -0.242891 0.110014 -0.100609
v -0.185901 -0.613151 -0.185901
v -0.185901 0.110014 -0.185901
v -0.100609 -0.613151 -0.242891
v -0.100609 0.110014 -0.242891
vt 1.000000 0.500000
vt 1.000000 1.000000
vt 0.937500 1.000000
vt 0.937500 0.500000
vt 0.875000 1.000000
vt 0.875000 0.500000
vt 0.812500 1.000000
vt 0.812500 0.500000
vt 0.750000 1.000000
vt 0.750000 0.500000
vt 0.687500 1.000000
vt 0.687500 0.500000
vt 0.625000 1.000000
vt 0.625000 0.500000
vt 0.562500 1.000000
vt 0.562500 0.500000
vt 0.500000 1.000000
vt 0.500000 0.500000
vt 0.437500 1.000000
vt 0.437500 0.500000
vt 0.375000 1.000000
vt 0.375000 0.500000
vt 0.312500 1.000000
vt 0.312500 0.500000
vt 0.250000 1.000000
vt 0.250000 0.500000
vt 0.187500 1.000000
vt 0.187500 0.500000
vt 0.125000 1.000000
vt 0.125000 0.500000
vt 0.341844 0.471731
vt 0.250000 0.490000
vt 0.158156 0.471731
vt 0.080294 0.419706
vt 0.028269 0.341844
vt 0.010000 0.250000
vt 0.028269 0.158156
vt 0.080294 0.080294
vt 0.158156 0.028269
vt 0.250000 0.010000
vt 0.341844 0.028269
vt 0.419706 0.080294
vt 0.471731 0.158156
vt 0.490000 0.250000
vt 0.471731 0.341844
vt 0.419706 0.419706
vt 0.062500 1.000000
vt 0.062500 0.500000
vt 0.000000 1.000000
vt 0.000000 0.500000
vt 0.750000 0.490000
vt 0.841844 0.471731
vt 0.919706 0.419706
vt 0.971731 0.341844
vt 0.990000 0.250000
vt 0.971731 0.158156
vt 0.919706 0.080294
vt 0.841844 0.028269
vt 0.750000 0.010000
vt 0.658156 0.028269
vt 0.580294 0.080294
vt 0.528269 0.158156
vt 0.510000 0.250000
vt 0.528269 0.341844
vt 0.580294 0.419706
vt 0.658156 0.471731
vn 0.1951 0.0000 -0.9808
vn 0.5556 0.0000 -0.8315
vn 0.8315 0.0000 -0.5556
vn 0.9808 0.0000 -0.1951
vn 0.9808 0.0000 0.1951
vn 0.8315 0.0000 0.5556
vn 0.5556 0.0000 0.8315
vn 0.1951 0.0000 0.9808
vn -0.1951 0.0000 0.9808
vn -0.5556 0.0000 0.8315
vn -0.8315 0.0000 0.5556
vn -0.9808 0.0000 0.1951
vn -0.9808 0.0000 -0.1951
vn -0.8315 0.0000 -0.5556
vn 0.0000 1.0000 0.0000
vn -0.5556 0.0000 -0.8315
vn -0.1951 0.0000 -0.9808
vn 0.0000 -1.0000 0.0000
usemtl MushroomStem
s off
f 43/107/81 44/108/81 46/109/81 45/110/81
f 45/110/82 46/109/82 48/111/82 47/112/82
f 47/112/83 48/111/83 50/113/83 49/114/83
f 49/114/84 50/113/84 52/115/84 51/116/84
f 51/116/85 52/115/85 54/117/85 53/118/85
f 53/118/86 54/117/86 56/119/86 55/120/86
f 55/120/87 56/119/87 58/121/87 57/122/87
f 57/122/88 58/121/88 60/123/88 59/124/88
f 59/124/89 60/123/89 62/125/89 61/126/89
f 61/126/90 62/125/90 64/127/90 63/128/90
f 63/128/91 64/127/91 66/129/91 65/130/91
f 65/130/92 66/129/92 68/131/92 67/132/92
f 67/132/93 68/131/93 70/133/93 69/134/93
f 69/134/94 70/133/94 72/135/94 71/136/94
f 46/137/95 44/138/95 74/139/95 72/140/95 70/141/95 68/142/95 66/143/95 64/144/95 62/145/95 60/146/95 58/147/95 56/148/95 54/149/95 52/150/95 50/151/95 48/152/95
f 71/136/96 72/135/96 74/153/96 73/154/96
f 73/154/97 74/153/97 44/155/97 43/156/97
f 43/157/98 45/158/98 47/159/98 49/160/98 51/161/98 53/162/98 55/163/98 57/164/98 59/165/98 61/166/98 63/167/98 65/168/98 67/169/98 69/170/98 71/171/98 73/172/98
