# Blender v2.92.0 OBJ File: 'wall.blend'
# www.blender.org
mtllib wall.mtl
o Cube_Cube.001
v -1.000000 -0.605965 0.227260
v -1.000000 0.605965 0.227260
v -1.000000 -0.605965 -0.227260
v -1.000000 0.605965 -0.227260
v 1.000000 -0.605965 0.227260
v 1.000000 0.605965 0.227260
v 1.000000 -0.605965 -0.227260
v 1.000000 0.605965 -0.227260
vt 0.441696 0.435436
vt 0.558304 0.435436
vt 0.558304 0.552045
vt 0.441696 0.552045
vt 0.375000 0.372917
vt 0.625000 0.372917
vt 0.625000 0.622917
vt 0.375000 0.622917
vt 0.434609 0.452543
vt 0.567871 0.452543
vt 0.567871 0.585804
vt 0.434609 0.585804
vt 0.382441 0.377953
vt 0.632441 0.377953
vt 0.632441 0.627953
vt 0.382441 0.627953
vt 0.436765 0.441785
vt 0.561778 0.441785
vt 0.561778 0.566798
vt 0.436765 0.566798
vt 0.460348 0.467218
vt 0.541110 0.467218
vt 0.541110 0.547979
vt 0.460348 0.547979
vn -1.0000 0.0000 0.0000
vn 0.0000 0.0000 -1.0000
vn 1.0000 0.0000 0.0000
vn 0.0000 0.0000 1.0000
vn 0.0000 -1.0000 0.0000
vn 0.0000 1.0000 0.0000
usemtl Material
s off
f 1/1/1 2/2/1 4/3/1 3/4/1
f 3/5/2 4/6/2 8/7/2 7/8/2
f 7/9/3 8/10/3 6/11/3 5/12/3
f 5/13/4 6/14/4 2/15/4 1/16/4
f 3/17/5 7/18/5 5/19/5 1/20/5
f 8/21/6 4/22/6 2/23/6 6/24/6
